<?xml version="1.0" standalone="no"?>
<!DOCTYPE svg PUBLIC "-//W3C//DTD SVG 20010904//EN"
 "http://www.w3.org/TR/2001/REC-SVG-20010904/DTD/svg10.dtd">
<svg version="1.0" xmlns="http://www.w3.org/2000/svg"
 width="1250.000000pt" height="1250.000000pt" viewBox="0 0 1250.000000 1250.000000"
 preserveAspectRatio="xMidYMid meet">
<metadata>
Created by potrace 1.11, written by Peter Selinger 2001-2013
</metadata>
<g transform="translate(0.000000,1250.000000) scale(0.100000,-0.100000)"
fill="#000000" stroke="none">
<path d="M0 6250 l0 -6250 6250 0 6250 0 0 6250 0 6250 -6250 0 -6250 0 0
-6250z m6545 4759 c1133 -97 2039 -707 2541 -1709 221 -441 346 -904 405
-1500 8 -75 13 -504 16 -1240 6 -1398 -2 -1612 -72 -2020 -191 -1104 -782
-1972 -1657 -2434 -317 -168 -687 -283 -1084 -337 -132 -19 -207 -22 -444 -22
-237 0 -312 3 -444 22 -898 122 -1639 559 -2134 1258 -351 496 -569 1098 -647
1783 -28 253 -35 544 -35 1570 0 1269 8 1462 75 1848 276 1589 1372 2649 2875
2781 139 12 467 12 605 0z"/>
<path d="M6040 9500 c-241 -34 -463 -121 -652 -257 -44 -32 -125 -105 -181
-163 -285 -295 -443 -667 -524 -1230 -14 -101 -17 -271 -20 -1370 -5 -1305 -2
-1412 38 -1674 114 -755 496 -1289 1057 -1476 175 -58 278 -74 492 -74 164 0
212 4 300 23 752 160 1199 787 1280 1795 14 173 13 2459 -1 2621 -41 480 -165
878 -367 1180 -81 121 -242 290 -350 368 -158 113 -345 196 -540 238 -111 23
-420 34 -532 19z"/>
</g>
</svg>
